<svg width="148.816" height="59.799" fill="none" xmlns="http://www.w3.org/2000/svg"><defs><linearGradient x1="93.119" y1="24.5" x2="93.119" y2="51.5" id="paint_linear_28_4360_0" gradientUnits="userSpaceOnUse"><stop stop-color="#FFF"/><stop offset="1" stop-color="#FFF" stop-opacity="0"/></linearGradient><clipPath id="clip28_4357"><rect id="flower 1" rx="-.435" width="41.773" height="41.751" transform="translate(.435 .435)" fill="#fff" fill-opacity="0"/></clipPath></defs><rect id="flower 1" rx="-.435" width="41.773" height="41.751" transform="translate(.435 .435)" fill="#FFF" fill-opacity="0"/><g clip-path="url('#clip28_4357')"><path id="Vector" d="M31.98 13.32V6.66c0-.74-.6-1.34-1.34-1.34h-1.33V1.33c0-.74-.59-1.33-1.33-1.33-1.89 0-4.78-.15-8.17 1.88-2.11-.62-3.6-.55-5.16-.55-.73 0-1.33.6-1.33 1.33v2.66h-1.33c-.74 0-1.33.6-1.33 1.34v6.66c0 5.42 4.07 9.91 9.32 10.57v17.39c0 .74.6 1.34 1.34 1.34.73 0 1.33-.6 1.33-1.34v-4.66h2c4.04 0 7.33-3.28 7.33-7.32v-2c0-.74-.6-1.33-1.34-1.33h-3.33c-1.77 0-3.39.63-4.66 1.68v-3.76c5.24-.65 9.33-5.12 9.33-10.57Zm-2.67 0c0 2.37-1.05 4.51-2.7 5.97.02-.21.04-.43.04-.65 0-3.37-1.26-6.45-3.34-8.8 1.76-1.2 3.85-1.85 6-1.85v5.33ZM26.65 2.66v2.93c-.25.05-.49.11-.74.17-.86-.96-1.85-1.79-2.92-2.45 1.16-.43 2.4-.65 3.66-.65ZM15.99 3.99c2.64 0 5.21.97 7.21 2.81-.66.35-1.29.74-1.89 1.19-1.55-1.16-3.36-2-5.32-2.4v-1.6Zm-2.67 9.33V7.99c5.88 0 10.66 4.78 10.66 10.65 0 1.49-1.23 2.7-2.73 2.67-4.68-.12-7.93-3.84-7.93-7.99Zm13.99 15.31h2v.67c0 2.57-2.09 4.66-4.66 4.66h-2v-.67c0-2.57 2.09-4.66 4.66-4.66Z" fill="#FFF" fill-opacity="1" fill-rule="nonzero"/></g><path id="Explore Indonesia" d="M100.55 23.17q.8-1.67.8-3.84v-.68q-.01-2.14-.83-3.79-.58-1.18-1.5-1.97-.37-.32-.79-.58-.31-.19-.63-.34-1.24-.56-2.73-.56-1.51 0-2.76.57-.32.15-.63.34-.49.29-.91.67-.85.78-1.38 1.9-.8 1.66-.8 3.84v.83q.04 2.1.86 3.72.57 1.13 1.45 1.89.39.33.83.6.21.12.42.22 1.31.65 2.94.65 1.51 0 2.75-.57.32-.15.62-.33.44-.27.82-.6.9-.8 1.47-1.97Zm-58.44-3.02h5.62V17.5h-5.62v-3.13h6.65v-2.75H38.54v14.81h10.2v-2.74h-6.63v-3.54Zm16.31-8.53L56 16.54l-2.42-4.92h-4.07l4.13 7.34-4.25 7.47h4.12L56 21.42l2.49 5.01h4.12l-4.25-7.47 4.14-7.34h-4.08Zm9.2 14.81v-5.02h2.28q2.71 0 4.26-1.3.62-.53 1-1.19.55-.99.55-2.28 0-1.09-.4-2.01-.13-.31-.32-.61-.21-.34-.48-.64-.63-.7-1.54-1.14-1.31-.62-3.01-.62h-5.91v14.81h3.57Zm20.06-2.74h-6.22V11.62h-3.57v14.81h9.79v-2.74Zm19.36-2.49h1.94l2.61 5.23h3.83v-.15l-3.1-5.97q1.34-.63 1.96-1.65.63-1.02.63-2.57 0-1.4-.64-2.39-.34-.51-.85-.91-1.48-1.17-4.12-1.17h-5.83v14.81h3.57V21.2Zm13.87-1.05h5.62V17.5h-5.62v-3.13h6.66v-2.75h-10.23v14.81h10.21v-2.74h-6.64v-3.54Zm-23.93-4.79q.74 1.14.74 3.35v.68q-.01 2.16-.74 3.31-.38.58-.91.87-.51.28-1.18.28-.76 0-1.33-.34-.48-.29-.82-.83-.72-1.17-.72-3.35l.01-1.09q.11-2.82 1.46-3.67.57-.36 1.38-.36.7 0 1.24.3.51.28.87.85Zm-27.02 3.29h-2.34v-4.28H70q.7.01 1.18.33.19.13.35.3.06.07.11.15.45.59.45 1.51 0 .8-.39 1.3-.07.09-.16.17-.54.52-1.58.52Zm39.34-.21h-2.26v-4.07h2.26q.93 0 1.44.46.05.04.09.09.05.05.1.11.42.53.42 1.39 0 .87-.43 1.39-.04.05-.09.1-.02.03-.05.05-.51.48-1.48.48ZM85.5 40.17q.8-1.67.8-3.84v-.68q-.01-2.14-.83-3.79-.58-1.18-1.5-1.97-.37-.32-.79-.58-.31-.19-.63-.34-1.24-.56-2.73-.56-1.51 0-2.76.57-.32.15-.63.34-.49.29-.91.67-.85.78-1.38 1.9-.8 1.66-.8 3.84v.83q.04 2.1.86 3.72.57 1.13 1.45 1.89.39.33.83.6.21.12.42.22 1.31.65 2.94.65 1.51 0 2.75-.57.32-.15.62-.33.44-.27.82-.6.9-.8 1.47-1.97Zm37.18-1.53q.23.36.23.85 0 .42-.19.72-.12.2-.33.36-.51.38-1.4.38-1.38 0-2-.56l-.04-.04q-.57-.57-.57-1.72h-3.58q0 1.11.42 2.02.13.3.31.57l.01.01q.74 1.12 2.19 1.76 1.46.65 3.26.65 2.56 0 4.02-1.11.63-.48.99-1.11.48-.84.48-1.95 0-.9-.33-1.66-.56-1.28-2.07-2.15-.99-.57-2.53-1.07-1.53-.49-2.14-.95-.52-.39-.6-.86-.02-.08-.02-.17 0-.27.1-.51.13-.32.46-.57.55-.42 1.51-.42.87 0 1.41.42.05.04.09.08.12.11.22.24.34.46.34 1.16h3.56q0-.94-.34-1.74-.15-.35-.36-.66-.15-.22-.31-.41-.65-.76-1.66-1.22-1.27-.57-2.87-.57-1.64 0-2.95.53-1.31.52-2.03 1.46-.29.38-.46.81-.26.63-.26 1.36 0 .69.23 1.3.57 1.57 2.65 2.59.89.44 2.28.91 1.4.47 1.95.9.2.16.33.37Zm-83.9 4.79h3.56V28.62h-3.56v14.81Zm15.14 0h3.55V28.62h-3.56v9.22l-5.24-9.22H45.1v14.81h3.57v-9.22l5.25 9.22Zm6.09-14.81v14.81h4.87q1.4 0 2.61-.49.45-.18.88-.43.72-.42 1.3-.99.66-.67 1.12-1.53.05-.1.1-.21.76-1.53.76-3.44v-.68q-.01-1.73-.66-3.17-.11-.24-.23-.47-.51-.94-1.25-1.64-.54-.5-1.2-.87-.28-.16-.58-.3-1.34-.59-2.95-.59h-4.77Zm37.23 14.81h3.55V28.62h-3.56v9.22l-5.24-9.22h-3.57v14.81h3.57v-9.22l5.25 9.22Zm9.66-6.28h5.62V34.5h-5.62v-3.13h6.65v-2.75h-10.22v14.81h10.2v-2.74h-6.63v-3.54Zm21.93 6.28h3.56V28.62h-3.56v14.81Zm10.02-2.77h4.9l.86 2.77h3.84l-5.48-14.81h-3.36l-5.43 14.81H138l.85-2.77Zm-56.92-8.3q.74 1.14.74 3.35v.68q-.01 2.16-.74 3.31-.38.58-.91.87-.51.28-1.18.28-.76 0-1.33-.34-.48-.29-.82-.83-.72-1.17-.72-3.35l.01-1.09q.11-2.82 1.45-3.67.58-.36 1.39-.36.7 0 1.23.3.52.28.88.85Zm-18.35 8.33v-9.32h1.2q1.07 0 1.79.5.35.24.61.59.83 1.09.83 3.24v.64q0 2.16-.83 3.25-.29.39-.68.64-.69.46-1.68.46h-1.24Zm79.31-2.78h-3.18l1.58-5.14 1.6 5.14Z" fill="url('#paint_linear_28_4360_0')" fill-opacity="1" fill-rule="evenodd"/></svg>