<svg width="185.096" height="68.749" fill="none" xmlns="http://www.w3.org/2000/svg"><defs><linearGradient x1="77.14" y1="37.481" x2="77.14" y2="52.667" id="paint_linear_12_342_0" gradientUnits="userSpaceOnUse"><stop stop-color="#018495" stop-opacity="0"/><stop offset="1" stop-color="#018394"/></linearGradient><clipPath id="clip12_343"><rect id="flower 1" rx="-.5" width="48.026" height="48" transform="translate(.5 .5)" fill="#fff" fill-opacity="0"/></clipPath></defs><rect id="flower 1" rx="-.5" width="48.026" height="48" transform="translate(.5 .5)" fill="#FFF" fill-opacity="0"/><g clip-path="url('#clip12_343')"><path id="Vector" d="M36.76 15.31V7.65c0-.84-.68-1.53-1.53-1.53H33.7V1.53C33.7.68 33.01 0 32.17 0 30 0 26.68-.17 22.78 2.17c-2.43-.72-4.14-.64-5.93-.64-.85 0-1.53.68-1.53 1.53v3.06h-1.54c-.84 0-1.53.69-1.53 1.53v7.66c0 6.24 4.69 11.4 10.73 12.15v20c0 .85.68 1.54 1.53 1.54.84 0 1.53-.69 1.53-1.54V42.1h2.3c4.64 0 8.42-3.77 8.42-8.42v-2.29c0-.85-.68-1.53-1.53-1.53H31.4c-2.03 0-3.9.72-5.36 1.93v-4.33c6.03-.74 10.72-5.88 10.72-12.15Zm-3.06 0a9.18 9.18 0 0 1-3.11 6.87c.03-.24.05-.49.05-.75 0-3.87-1.46-7.42-3.84-10.12 2.02-1.38 4.42-2.13 6.9-2.13v6.13ZM30.64 3.06v3.37c-.29.06-.57.12-.85.2-.99-1.11-2.12-2.06-3.36-2.83 1.34-.49 2.76-.74 4.21-.74ZM18.38 4.59c3.04 0 6 1.11 8.3 3.23-.76.4-1.49.85-2.18 1.37-1.78-1.34-3.86-2.3-6.12-2.76V4.59Zm-3.06 10.72V9.18c6.75 0 12.25 5.5 12.25 12.25 0 1.72-1.41 3.11-3.14 3.06-5.39-.13-9.11-4.4-9.11-9.18ZM31.4 32.92h2.3v.76c0 2.96-2.41 5.36-5.36 5.36h-2.3v-.76c0-2.96 2.41-5.36 5.36-5.36Z" fill="#FFF" fill-opacity="1" fill-rule="nonzero"/></g><path id="Explore Indonesia" d="M115.6 26.24q.92-1.92.92-4.41v-.79q-.01-2.45-.95-4.35-.67-1.36-1.72-2.27-.43-.37-.92-.66-.35-.22-.72-.39-1.43-.64-3.14-.64-1.73 0-3.17.65-.37.17-.73.39-.56.34-1.04.77-.98.9-1.59 2.18-.92 1.91-.92 4.42v.96q.04 2.41.99 4.27.65 1.29 1.67 2.17.44.39.95.69.24.14.48.26 1.51.74 3.38.74 1.73 0 3.17-.66.36-.16.71-.38.51-.3.94-.69 1.04-.91 1.69-2.26Zm-67.19-3.46h6.46v-3.06h-6.46v-3.59h7.65v-3.17H44.3V30h11.74v-3.16h-7.63v-4.06Zm18.75-9.82-2.78 5.66-2.78-5.66h-4.68l4.75 8.45L56.79 30h4.72l2.87-5.77L67.25 30h4.73l-4.89-8.59 4.77-8.45h-4.7ZM77.74 30v-5.78h2.62q3.11 0 4.9-1.5.72-.6 1.15-1.37.63-1.13.63-2.61 0-1.25-.46-2.31-.15-.36-.36-.7-.25-.4-.56-.74-.72-.81-1.77-1.31-1.51-.72-3.46-.72h-6.8V30h4.11Zm23.06-3.16h-7.15V12.96h-4.11V30h11.26v-3.16Zm22.26-2.86h2.23l3 6.02h4.4v-.18l-3.56-6.87q1.54-.72 2.26-1.89.72-1.17.72-2.95 0-1.62-.74-2.75-.39-.59-.97-1.05-1.71-1.35-4.74-1.35h-6.7V30h4.1v-6.02Zm15.95-1.2h6.46v-3.06h-6.46v-3.59h7.65v-3.17H134.9V30h11.74v-3.16h-7.63v-4.06Zm-27.51-5.52q.85 1.32.85 3.86v.78q-.02 2.48-.86 3.8-.43.67-1.04 1-.59.32-1.36.32-.88 0-1.52-.38-.56-.34-.94-.96-.84-1.35-.84-3.85l.02-1.25q.12-3.24 1.67-4.22.66-.42 1.59-.42.81 0 1.42.35.59.32 1.01.97Zm-31.07 3.78h-2.69v-4.91h2.74q.8.01 1.35.38.22.15.4.35l.14.16q.51.68.51 1.74 0 .92-.45 1.49-.08.11-.18.2-.63.59-1.82.59Zm45.23-.23h-2.6v-4.68h2.6q1.07 0 1.66.53.05.05.09.1.07.06.12.13.48.61.48 1.59 0 1.01-.49 1.61-.05.05-.1.11l-.06.06q-.59.55-1.7.55ZM98.3 45.24q.92-1.92.92-4.41v-.79q-.01-2.45-.95-4.35-.67-1.36-1.73-2.27-.42-.37-.91-.66-.35-.22-.73-.39-1.42-.64-3.13-.64-1.74 0-3.17.65-.38.17-.73.39-.57.34-1.04.77-.98.9-1.6 2.18-.92 1.91-.92 4.42v.96q.05 2.41.99 4.27.66 1.29 1.68 2.17.44.39.95.69.23.14.48.26 1.51.74 3.38.74 1.73 0 3.16-.66.37-.16.72-.38.5-.3.94-.69 1.03-.91 1.69-2.26Zm42.74-1.76q.26.42.26.99 0 .47-.21.82-.14.23-.38.41-.59.44-1.61.44-1.59 0-2.3-.65l-.04-.04q-.66-.65-.66-1.98h-4.12q0 1.28.48 2.33.16.34.37.65 0 .01.01.02.84 1.28 2.51 2.02 1.68.74 3.75.74 2.94 0 4.62-1.28.73-.54 1.14-1.27.55-.96.55-2.24 0-1.03-.38-1.91-.65-1.47-2.38-2.47-1.14-.66-2.9-1.23-1.77-.56-2.47-1.1-.59-.44-.69-.98-.02-.1-.02-.2 0-.31.11-.58.16-.37.53-.66.64-.48 1.74-.48 1 0 1.62.48.06.05.1.09.15.13.26.28.38.52.38 1.33h4.1q0-1.08-.39-2-.17-.39-.42-.76-.16-.25-.35-.47-.75-.88-1.91-1.4-1.46-.65-3.3-.65-1.88 0-3.39.6-1.51.6-2.33 1.68-.34.44-.54.93-.29.73-.29 1.57 0 .79.26 1.49.66 1.81 3.05 2.98 1.02.5 2.62 1.04 1.61.54 2.24 1.04.24.19.38.42ZM44.59 49h4.09V31.96h-4.09V49Zm17.4 0h4.09V31.96h-4.1v10.6l-6.02-10.6h-4.11V49h4.11V38.4L61.99 49Zm7-17.04V49h5.6q1.61-.01 3-.57.52-.21 1.01-.49.83-.49 1.49-1.15.76-.76 1.29-1.76.07-.11.13-.23.86-1.77.86-3.96v-.78q-.01-1.99-.75-3.64-.13-.28-.27-.55-.59-1.08-1.44-1.88-.62-.58-1.37-1.01-.33-.18-.67-.33-1.54-.69-3.39-.69h-5.49ZM111.8 49h4.08V31.96h-4.1v10.6l-6.02-10.6h-4.11V49h4.11V38.4L111.8 49Zm11.1-7.22h6.46v-3.06h-6.46v-3.59h7.65v-3.17h-11.76V49h11.74v-3.16h-7.63v-4.06ZM148.11 49h4.09V31.96h-4.09V49Zm11.52-3.19h5.63l1 3.19h4.41l-6.3-17.04h-3.86L154.26 49h4.39l.98-3.19Zm-65.44-9.55q.85 1.32.85 3.86v.78q-.01 2.48-.85 3.8-.43.67-1.04 1-.59.32-1.36.32-.88 0-1.53-.38-.55-.34-.94-.96-.83-1.35-.83-3.85l.01-1.25q.13-3.24 1.67-4.22.67-.42 1.6-.42.8 0 1.42.35.59.32 1 .97ZM73.1 45.84V35.13h1.38q1.22 0 2.06.58.39.27.7.67.94 1.25.94 3.72v.74q0 2.48-.94 3.74-.34.45-.79.74-.79.52-1.93.52H73.1Zm91.18-3.2h-3.66l1.82-5.91 1.84 5.91Z" fill="#FFF" fill-opacity="1" fill-rule="evenodd"/><g opacity=".7"><path id="Rectangle 1268" fill="url('#paint_linear_12_342_0')" fill-opacity="1" d="M19.01 36h166.086v20H19.01z"/></g></svg>