<svg width="19.711" height="137.388" fill="none" xmlns="http://www.w3.org/2000/svg"><defs><filter id="filter_6_332_dd" x="0" y="0" width="19.711" height="137.388" filterUnits="userSpaceOnUse" color-interpolation-filters="sRGB"><feFlood flood-opacity="0" result="BackgroundImageFix"/><feColorMatrix in="SourceAlpha" values="0 0 0 0 0 0 0 0 0 0 0 0 0 0 0 0 0 0 127 0" result="hardAlpha"/><feOffset/><feGaussianBlur stdDeviation="1.333"/><feComposite in2="hardAlpha" operator="out" k2="-1" k3="1"/><feColorMatrix values="0 0 0 0 0 0 0 0 0 0 0 0 0 0 0 0 0 0 0.1 0"/><feBlend in2="BackgroundImageFix" result="effect_dropShadow_1"/><feBlend in="SourceGraphic" in2="effect_dropShadow_1" result="shape"/></filter></defs><g filter="url('#filter_6_332_dd')"><path id="Fb In Tw" d="M15.37 121.48q.34-.67.34-1.56t-.34-1.62q-.09-.2-.2-.38-.2-.34-.46-.61-.43-.47-1.01-.79-.05-.02-.1-.05-.9-.46-2.04-.46-1.13 0-2.03.45-.05.03-.11.06-.6.33-1.04.8-.25.27-.45.6-.13.21-.23.43-.31.71-.31 1.57 0 1 .4 1.64.4.63.92 1.01H4v2.05h11.51v-1.83l-1.09-.22q.26-.18.47-.4.29-.3.48-.69Zm-11.05 11.9h11.19v-2.04h-4.8v-4.19H9.1v4.19H5.96v-5.19H4.32v7.23Zm0-61.13h11.19V70.2H4.32v2.05Zm1.64-50.83h9.55v-2.05H5.96v-3.28H4.32v8.59h1.64v-3.26Zm1.62 46.65h7.93v-2.05h-4.09q-1.06 0-1.67-.52-.01-.01-.02-.03-.26-.23-.41-.52-.2-.39-.2-.89 0-.71.35-1.12.08-.1.19-.18.54-.42 1.57-.42h4.28V60.3h-4.48q-1.79 0-2.71.81-.24.21-.42.46-.51.73-.51 1.83 0 .92.39 1.61.01.02.02.03.24.4.57.69.25.22.55.38l-1.34.16v1.8Zm0-51.77 7.93-2.32v-2.13l-5.93-1.69 5.93-1.7V6.33L7.58 4v2.03l5.71 1.39-5.71 1.6v2.27l5.71 1.6-5.71 1.37v2.04Zm6.09 102.98q.24.47.24 1.07 0 .62-.26 1.1-.15.28-.4.52-.19.18-.4.3-.56.33-1.3.33-.75 0-1.31-.33-.21-.12-.4-.3-.25-.24-.4-.52-.26-.48-.26-1.1 0-.58.23-1.03.16-.32.44-.59.2-.19.44-.32.54-.32 1.27-.32.75 0 1.3.33.22.13.4.31.25.25.41.55Z" fill="#FFF" fill-opacity="1" fill-rule="evenodd"/></g></svg>