<svg width="19.582" height="23.075" fill="none" xmlns="http://www.w3.org/2000/svg"><defs><filter id="filter_6_337_dd" x="0" y="0" width="19.582" height="23.075" filterUnits="userSpaceOnUse" color-interpolation-filters="sRGB"><feFlood flood-opacity="0" result="BackgroundImageFix"/><feColorMatrix in="SourceAlpha" values="0 0 0 0 0 0 0 0 0 0 0 0 0 0 0 0 0 0 127 0" result="hardAlpha"/><feOffset/><feGaussianBlur stdDeviation="1.333"/><feComposite in2="hardAlpha" operator="out" k2="-1" k3="1"/><feColorMatrix values="0 0 0 0 0 0 0 0 0 0 0 0 0 0 0 0 0 0 0.1 0"/><feBlend in2="BackgroundImageFix" result="effect_dropShadow_1"/><feBlend in="SourceGraphic" in2="effect_dropShadow_1" result="shape"/></filter></defs><g filter="url('#filter_6_337_dd')"><path id="1" d="M14.92 16.66q.66-1.08.66-2.55 0-1.48-.66-2.55-.03-.05-.07-.11-.18-.27-.4-.51-.65-.74-1.63-1.19-1.31-.6-3.04-.6-1.71 0-3.02.6-1.02.46-1.68 1.23-.19.22-.36.47-.03.06-.07.11Q4 12.63 4 14.11q0 1.47.65 2.55.04.05.07.11.15.23.33.44.67.78 1.71 1.26 1.31.6 3.02.6 1.73 0 3.04-.6 1-.46 1.66-1.22.2-.23.37-.48.04-.06.07-.11ZM6.52 6.12h8.87V4H4.19v1.26l1.2 2.7h1.56l-.43-1.84Zm7.01 6.95q.21.48.21 1.04 0 .59-.23 1.08-.26.57-.83.99-1.06.79-2.9.79-1.84 0-2.89-.79-.57-.42-.83-.99-.23-.49-.23-1.08 0-.56.21-1.04.26-.58.85-1.02 1.05-.8 2.89-.8t2.9.8q.59.44.85 1.02Z" fill="#FFF" fill-opacity="1" fill-rule="evenodd"/></g></svg>