<svg width="185.096436" height="68.748779" viewBox="0 0 185.096 68.7488" fill="none" xmlns="http://www.w3.org/2000/svg" xmlns:xlink="http://www.w3.org/1999/xlink">
	<desc>
			Created with Pixso.
	</desc>
	<defs>
		<clipPath id="clip12_343">
			<rect id="flower 1" rx="-0.500000" width="48.025520" height="48.000000" transform="translate(0.500000 0.500000)" fill="white" fill-opacity="0"/>
		</clipPath>
		<linearGradient x1="77.140038" y1="37.481483" x2="77.140038" y2="52.666664" id="paint_linear_12_342_0" gradientUnits="userSpaceOnUse">
			<stop stop-color="#018495" stop-opacity="0.000000"/>
			<stop offset="1.000000" stop-color="#018394"/>
		</linearGradient>
	</defs>
	<rect id="flower 1" rx="-0.500000" width="48.025520" height="48.000000" transform="translate(0.500000 0.500000)" fill="#FFFFFF" fill-opacity="0"/>
	<g clip-path="url(#clip12_343)">
		<path id="Vector" d="M36.76 15.31L36.76 7.65C36.76 6.81 36.08 6.12 35.23 6.12L33.7 6.12L33.7 1.53C33.7 0.68 33.01 0 32.17 0C30 0 26.68 -0.17 22.78 2.17C20.35 1.45 18.64 1.53 16.85 1.53C16 1.53 15.32 2.21 15.32 3.06L15.32 6.12L13.78 6.12C12.94 6.12 12.25 6.81 12.25 7.65L12.25 15.31C12.25 21.55 16.94 26.71 22.98 27.46L22.98 47.46C22.98 48.31 23.66 49 24.51 49C25.35 49 26.04 48.31 26.04 47.46L26.04 42.1L28.34 42.1C32.98 42.1 36.76 38.33 36.76 33.68L36.76 31.39C36.76 30.54 36.08 29.86 35.23 29.86L31.4 29.86C29.37 29.86 27.5 30.58 26.04 31.79L26.04 27.46C32.07 26.72 36.76 21.58 36.76 15.31ZM33.7 15.31C33.7 18.03 32.49 20.5 30.59 22.18C30.62 21.94 30.64 21.69 30.64 21.43C30.64 17.56 29.18 14.01 26.8 11.31C28.82 9.93 31.22 9.18 33.7 9.18L33.7 15.31ZM30.64 3.06L30.64 6.43C30.35 6.49 30.07 6.55 29.79 6.63C28.8 5.52 27.67 4.57 26.43 3.8C27.77 3.31 29.19 3.06 30.64 3.06ZM18.38 4.59C21.42 4.59 24.38 5.7 26.68 7.82C25.92 8.22 25.19 8.67 24.5 9.19C22.72 7.85 20.64 6.89 18.38 6.43L18.38 4.59ZM15.32 15.31L15.32 9.18C22.07 9.18 27.57 14.68 27.57 21.43C27.57 23.15 26.16 24.54 24.43 24.49C19.04 24.36 15.32 20.09 15.32 15.31ZM31.4 32.92L33.7 32.92L33.7 33.68C33.7 36.64 31.29 39.04 28.34 39.04L26.04 39.04L26.04 38.28C26.04 35.32 28.45 32.92 31.4 32.92Z" fill="#FFFFFF" fill-opacity="1.000000" fill-rule="nonzero"/>
	</g>
	<path id="Explore Indonesia" d="M115.6 26.24Q116.52 24.32 116.52 21.83L116.52 21.04Q116.51 18.59 115.57 16.69Q114.9 15.33 113.85 14.42Q113.42 14.05 112.93 13.76Q112.58 13.54 112.21 13.37Q110.78 12.73 109.07 12.73Q107.34 12.73 105.9 13.38Q105.53 13.55 105.17 13.77Q104.61 14.11 104.13 14.54Q103.15 15.44 102.54 16.72Q101.62 18.63 101.62 21.14L101.62 22.1Q101.66 24.51 102.61 26.37Q103.26 27.66 104.28 28.54Q104.72 28.93 105.23 29.23Q105.47 29.37 105.71 29.49Q107.22 30.23 109.09 30.23Q110.82 30.23 112.26 29.57Q112.62 29.41 112.97 29.19Q113.48 28.89 113.91 28.5Q114.95 27.59 115.6 26.24ZM48.41 22.78L54.87 22.78L54.87 19.72L48.41 19.72L48.41 16.13L56.06 16.13L56.06 12.96L44.3 12.96L44.3 30L56.04 30L56.04 26.84L48.41 26.84L48.41 22.78ZM67.16 12.96L64.38 18.62L61.6 12.96L56.92 12.96L61.67 21.41L56.79 30L61.51 30L64.38 24.23L67.25 30L71.98 30L67.09 21.41L71.86 12.96L67.16 12.96ZM77.74 30L77.74 24.22L80.36 24.22Q83.47 24.22 85.26 22.72Q85.98 22.12 86.41 21.35Q87.04 20.22 87.04 18.74Q87.04 17.49 86.58 16.43Q86.43 16.07 86.22 15.73Q85.97 15.33 85.66 14.99Q84.94 14.18 83.89 13.68Q82.38 12.96 80.43 12.96L73.63 12.96L73.63 30L77.74 30ZM100.8 26.84L93.65 26.84L93.65 12.96L89.54 12.96L89.54 30L100.8 30L100.8 26.84ZM123.06 23.98L125.29 23.98L128.29 30L132.69 30L132.69 29.82L129.13 22.95Q130.67 22.23 131.39 21.06Q132.11 19.89 132.11 18.11Q132.11 16.49 131.37 15.36Q130.98 14.77 130.4 14.31Q128.69 12.96 125.66 12.96L118.96 12.96L118.96 30L123.06 30L123.06 23.98ZM139.01 22.78L145.47 22.78L145.47 19.72L139.01 19.72L139.01 16.13L146.66 16.13L146.66 12.96L134.9 12.96L134.9 30L146.64 30L146.64 26.84L139.01 26.84L139.01 22.78ZM111.5 17.26Q112.35 18.58 112.35 21.12L112.35 21.9Q112.33 24.38 111.49 25.7Q111.06 26.37 110.45 26.7Q109.86 27.02 109.09 27.02Q108.21 27.02 107.57 26.64Q107.01 26.3 106.63 25.68Q105.79 24.33 105.79 21.83L105.81 20.58Q105.93 17.34 107.48 16.36Q108.14 15.94 109.07 15.94Q109.88 15.94 110.49 16.29Q111.08 16.61 111.5 17.26ZM80.43 21.04L77.74 21.04L77.74 16.13L80.48 16.13Q81.28 16.14 81.83 16.51Q82.05 16.66 82.23 16.86Q82.3 16.94 82.37 17.02Q82.88 17.7 82.88 18.76Q82.88 19.68 82.43 20.25Q82.35 20.36 82.25 20.45L82.25 20.45Q81.62 21.04 80.43 21.04ZM125.66 20.81L123.06 20.81L123.06 16.13L125.66 16.13Q126.73 16.13 127.32 16.66Q127.37 16.71 127.41 16.76Q127.48 16.82 127.53 16.89Q128.01 17.5 128.01 18.48Q128.01 19.49 127.52 20.09Q127.47 20.14 127.42 20.2Q127.39 20.23 127.36 20.26Q126.77 20.81 125.66 20.81ZM98.3 45.24Q99.22 43.32 99.22 40.83L99.22 40.04Q99.21 37.59 98.27 35.69Q97.6 34.33 96.54 33.42Q96.12 33.05 95.63 32.76Q95.28 32.54 94.9 32.37Q93.48 31.73 91.77 31.73Q90.03 31.73 88.6 32.38Q88.22 32.55 87.87 32.77Q87.3 33.11 86.83 33.54Q85.85 34.44 85.23 35.72Q84.31 37.63 84.31 40.14L84.31 41.1Q84.36 43.51 85.3 45.37Q85.96 46.66 86.98 47.54Q87.42 47.93 87.93 48.23Q88.16 48.37 88.41 48.49Q89.92 49.23 91.79 49.23Q93.52 49.23 94.95 48.57Q95.32 48.41 95.67 48.19Q96.17 47.89 96.61 47.5Q97.64 46.59 98.3 45.24ZM141.04 43.48Q141.3 43.9 141.3 44.47Q141.3 44.94 141.09 45.29Q140.95 45.52 140.71 45.7Q140.12 46.14 139.1 46.14Q137.51 46.14 136.8 45.49Q136.78 45.47 136.76 45.45Q136.1 44.8 136.1 43.47L131.98 43.47Q131.98 44.75 132.46 45.8Q132.62 46.14 132.83 46.45Q132.83 46.46 132.84 46.47Q133.68 47.75 135.35 48.49Q137.03 49.23 139.1 49.23Q142.04 49.23 143.72 47.95Q144.45 47.41 144.86 46.68Q145.41 45.72 145.41 44.44Q145.41 43.41 145.03 42.53Q144.38 41.06 142.65 40.06Q141.51 39.4 139.75 38.83Q137.98 38.27 137.28 37.73Q136.69 37.29 136.59 36.75Q136.57 36.65 136.57 36.55Q136.57 36.24 136.68 35.97Q136.84 35.6 137.21 35.31Q137.85 34.83 138.95 34.83Q139.95 34.83 140.57 35.31Q140.63 35.36 140.67 35.4Q140.82 35.53 140.93 35.68Q141.31 36.2 141.31 37.01L145.41 37.01Q145.41 35.93 145.02 35.01Q144.85 34.62 144.6 34.25Q144.44 34 144.25 33.78Q143.5 32.9 142.34 32.38Q140.88 31.73 139.04 31.73Q137.16 31.73 135.65 32.33Q134.14 32.93 133.32 34.01Q132.98 34.45 132.78 34.94Q132.49 35.67 132.49 36.51Q132.49 37.3 132.75 38Q133.41 39.81 135.8 40.98Q136.82 41.48 138.42 42.02Q140.03 42.56 140.66 43.06Q140.9 43.25 141.04 43.48ZM44.59 49L48.68 49L48.68 31.96L44.59 31.96L44.59 49ZM61.99 49L66.08 49L66.08 31.96L61.98 31.96L61.98 42.56L55.96 31.96L51.85 31.96L51.85 49L55.96 49L55.96 38.4L61.99 49ZM68.99 31.96L68.99 49L74.59 49Q76.2 48.99 77.59 48.43Q78.11 48.22 78.6 47.94Q79.43 47.45 80.09 46.79Q80.85 46.03 81.38 45.03Q81.45 44.92 81.51 44.8Q82.37 43.03 82.37 40.84L82.37 40.06Q82.36 38.07 81.62 36.42Q81.49 36.14 81.35 35.87Q80.76 34.79 79.91 33.99Q79.29 33.41 78.54 32.98Q78.21 32.8 77.87 32.65Q76.33 31.96 74.48 31.96L68.99 31.96ZM111.8 49L115.88 49L115.88 31.96L111.78 31.96L111.78 42.56L105.76 31.96L101.65 31.96L101.65 49L105.76 49L105.76 38.4L111.8 49ZM122.9 41.78L129.36 41.78L129.36 38.72L122.9 38.72L122.9 35.13L130.55 35.13L130.55 31.96L118.79 31.96L118.79 49L130.53 49L130.53 45.84L122.9 45.84L122.9 41.78ZM148.11 49L152.2 49L152.2 31.96L148.11 31.96L148.11 49ZM159.63 45.81L165.26 45.81L166.26 49L170.67 49L164.37 31.96L160.51 31.96L154.26 49L158.65 49L159.63 45.81ZM94.19 36.26Q95.04 37.58 95.04 40.12L95.04 40.9Q95.03 43.38 94.19 44.7Q93.76 45.37 93.15 45.7Q92.56 46.02 91.79 46.02Q90.91 46.02 90.26 45.64Q89.71 45.3 89.32 44.68Q88.49 43.33 88.49 40.83L88.5 39.58Q88.63 36.34 90.17 35.36Q90.84 34.94 91.77 34.94Q92.57 34.94 93.19 35.29Q93.78 35.61 94.19 36.26ZM73.1 45.84L73.1 35.13L74.48 35.13Q75.7 35.13 76.54 35.71Q76.93 35.98 77.24 36.38Q78.18 37.63 78.18 40.1L78.18 40.84Q78.18 43.32 77.24 44.58Q76.9 45.03 76.45 45.32Q75.66 45.84 74.52 45.84L73.1 45.84ZM164.28 42.64L160.62 42.64L162.44 36.73L164.28 42.64Z" fill="#FFFFFF" fill-opacity="1.000000" fill-rule="evenodd"/>
	<g opacity="0.700000">
		<rect id="Rectangle 1268" x="19.009766" y="36.000000" width="166.086456" height="20.000000" fill="url(#paint_linear_12_342_0)" fill-opacity="1.000000"/>
	</g>
</svg>
