<svg width="19.582031" height="23.074844" viewBox="0 0 19.582 23.0748" fill="none" xmlns="http://www.w3.org/2000/svg" xmlns:xlink="http://www.w3.org/1999/xlink">
	<desc>
			Created with Pixso.
	</desc>
	<defs>
		<filter id="filter_6_337_dd" x="0.000000" y="0.000000" width="19.582031" height="23.074844" filterUnits="userSpaceOnUse" color-interpolation-filters="sRGB">
			<feFlood flood-opacity="0" result="BackgroundImageFix"/>
			<feColorMatrix in="SourceAlpha" type="matrix" values="0 0 0 0 0 0 0 0 0 0 0 0 0 0 0 0 0 0 127 0" result="hardAlpha"/>
			<feOffset dx="0" dy="0"/>
			<feGaussianBlur stdDeviation="1.33333"/>
			<feComposite in2="hardAlpha" operator="out" k2="-1" k3="1"/>
			<feColorMatrix type="matrix" values="0 0 0 0 0 0 0 0 0 0 0 0 0 0 0 0 0 0 0.1 0"/>
			<feBlend mode="normal" in2="BackgroundImageFix" result="effect_dropShadow_1"/>
			<feBlend mode="normal" in="SourceGraphic" in2="effect_dropShadow_1" result="shape"/>
		</filter>
	</defs>
	<g filter="url(#filter_6_337_dd)">
		<path id="01" d="M14.92 16.66Q15.58 15.58 15.58 14.11Q15.58 12.63 14.92 11.56Q14.89 11.51 14.85 11.45Q14.67 11.18 14.45 10.94Q13.8 10.2 12.82 9.75Q11.51 9.15 9.78 9.15Q8.07 9.15 6.76 9.75Q5.74 10.21 5.08 10.98Q4.89 11.2 4.72 11.45Q4.69 11.51 4.65 11.56Q4 12.63 4 14.11Q4 15.58 4.65 16.66Q4.69 16.71 4.72 16.77Q4.87 17 5.05 17.21Q5.72 17.99 6.76 18.47Q8.07 19.07 9.78 19.07Q11.51 19.07 12.82 18.47Q13.82 18.01 14.48 17.25Q14.68 17.02 14.85 16.77Q14.89 16.71 14.92 16.66ZM6.52 6.12L15.39 6.12L15.39 4L4.19 4L4.19 5.26L5.39 7.96L6.95 7.96L6.52 6.12ZM13.53 13.07Q13.74 13.55 13.74 14.11Q13.74 14.7 13.51 15.19Q13.25 15.76 12.68 16.18Q11.62 16.97 9.78 16.97Q7.94 16.97 6.89 16.18Q6.32 15.76 6.06 15.19Q5.83 14.7 5.83 14.11Q5.83 13.55 6.04 13.07Q6.3 12.49 6.89 12.05Q7.94 11.25 9.78 11.25Q11.62 11.25 12.68 12.05Q13.27 12.49 13.53 13.07Z" fill="#FFFFFF" fill-opacity="1.000000" fill-rule="evenodd"/>
	</g>
</svg>
