<svg width="148.816162" height="59.798859" viewBox="0 0 148.816 59.7989" fill="none" xmlns="http://www.w3.org/2000/svg" xmlns:xlink="http://www.w3.org/1999/xlink">
	<desc>
			Created with Pixso.
	</desc>
	<defs>
		<clipPath id="clip28_4357">
			<rect id="flower 1" rx="-0.434909" width="41.773426" height="41.751228" transform="translate(0.434909 0.434909)" fill="white" fill-opacity="0"/>
		</clipPath>
		<linearGradient x1="93.118851" y1="24.500002" x2="93.118851" y2="51.500000" id="paint_linear_28_4360_0" gradientUnits="userSpaceOnUse">
			<stop stop-color="#FFFFFF"/>
			<stop offset="1.000000" stop-color="#FFFFFF" stop-opacity="0.000000"/>
		</linearGradient>
	</defs>
	<rect id="flower 1" rx="-0.434909" width="41.773426" height="41.751228" transform="translate(0.434909 0.434909)" fill="#FFFFFF" fill-opacity="0"/>
	<g clip-path="url(#clip28_4357)">
		<path id="Vector" d="M31.98 13.32L31.98 6.66C31.98 5.92 31.38 5.32 30.64 5.32L29.31 5.32L29.31 1.33C29.31 0.59 28.72 0 27.98 0C26.09 0 23.2 -0.15 19.81 1.88C17.7 1.26 16.21 1.33 14.65 1.33C13.92 1.33 13.32 1.93 13.32 2.66L13.32 5.32L11.99 5.32C11.25 5.32 10.66 5.92 10.66 6.66L10.66 13.32C10.66 18.74 14.73 23.23 19.98 23.89L19.98 41.28C19.98 42.02 20.58 42.62 21.32 42.62C22.05 42.62 22.65 42.02 22.65 41.28L22.65 36.62L24.65 36.62C28.69 36.62 31.98 33.34 31.98 29.3L31.98 27.3C31.98 26.56 31.38 25.97 30.64 25.97L27.31 25.97C25.54 25.97 23.92 26.6 22.65 27.65L22.65 23.89C27.89 23.24 31.98 18.77 31.98 13.32ZM29.31 13.32C29.31 15.69 28.26 17.83 26.61 19.29C26.63 19.08 26.65 18.86 26.65 18.64C26.65 15.27 25.39 12.19 23.31 9.84C25.07 8.64 27.16 7.99 29.31 7.99L29.31 13.32ZM26.65 2.66L26.65 5.59C26.4 5.64 26.16 5.7 25.91 5.76C25.05 4.8 24.06 3.97 22.99 3.31C24.15 2.88 25.39 2.66 26.65 2.66ZM15.99 3.99C18.63 3.99 21.2 4.96 23.2 6.8C22.54 7.15 21.91 7.54 21.31 7.99C19.76 6.83 17.95 5.99 15.99 5.59L15.99 3.99ZM13.32 13.32L13.32 7.99C19.2 7.99 23.98 12.77 23.98 18.64C23.98 20.13 22.75 21.34 21.25 21.31C16.57 21.19 13.32 17.47 13.32 13.32ZM27.31 28.63L29.31 28.63L29.31 29.3C29.31 31.87 27.22 33.96 24.65 33.96L22.65 33.96L22.65 33.29C22.65 30.72 24.74 28.63 27.31 28.63Z" fill="#FFFFFF" fill-opacity="1.000000" fill-rule="nonzero"/>
	</g>
	<path id="Explore Indonesia" d="M100.55 23.17Q101.35 21.5 101.35 19.33L101.35 18.65Q101.34 16.51 100.52 14.86Q99.94 13.68 99.02 12.89Q98.65 12.57 98.23 12.31Q97.92 12.12 97.6 11.97Q96.36 11.41 94.87 11.41Q93.36 11.41 92.11 11.98Q91.79 12.13 91.48 12.32Q90.99 12.61 90.57 12.99Q89.72 13.77 89.19 14.89Q88.39 16.55 88.39 18.73L88.39 19.56Q88.43 21.66 89.25 23.28Q89.82 24.41 90.7 25.17Q91.09 25.5 91.53 25.77Q91.74 25.89 91.95 25.99Q93.26 26.64 94.89 26.64Q96.4 26.64 97.64 26.07Q97.96 25.92 98.26 25.74Q98.7 25.47 99.08 25.14Q99.98 24.34 100.55 23.17ZM42.11 20.15L47.73 20.15L47.73 17.5L42.11 17.5L42.11 14.37L48.76 14.37L48.76 11.62L38.54 11.62L38.54 26.43L48.74 26.43L48.74 23.69L42.11 23.69L42.11 20.15ZM58.42 11.62L56 16.54L53.58 11.62L49.51 11.62L53.64 18.96L49.39 26.43L53.51 26.43L56 21.42L58.49 26.43L62.61 26.43L58.36 18.96L62.5 11.62L58.42 11.62ZM67.62 26.43L67.62 21.41L69.9 21.41Q72.61 21.41 74.16 20.11Q74.78 19.58 75.16 18.92Q75.71 17.93 75.71 16.64Q75.71 15.55 75.31 14.63Q75.18 14.32 74.99 14.02Q74.78 13.68 74.51 13.38Q73.88 12.68 72.97 12.24Q71.66 11.62 69.96 11.62L64.05 11.62L64.05 26.43L67.62 26.43ZM87.68 23.69L81.46 23.69L81.46 11.62L77.89 11.62L77.89 26.43L87.68 26.43L87.68 23.69ZM107.04 21.2L108.98 21.2L111.59 26.43L115.42 26.43L115.42 26.28L112.32 20.31Q113.66 19.68 114.28 18.66Q114.91 17.64 114.91 16.09Q114.91 14.69 114.27 13.7Q113.93 13.19 113.42 12.79Q111.94 11.62 109.3 11.62L103.47 11.62L103.47 26.43L107.04 26.43L107.04 21.2ZM120.91 20.15L126.53 20.15L126.53 17.5L120.91 17.5L120.91 14.37L127.57 14.37L127.57 11.62L117.34 11.62L117.34 26.43L127.55 26.43L127.55 23.69L120.91 23.69L120.91 20.15ZM96.98 15.36Q97.72 16.5 97.72 18.71L97.72 19.39Q97.71 21.55 96.98 22.7Q96.6 23.28 96.07 23.57Q95.56 23.85 94.89 23.85Q94.13 23.85 93.56 23.51Q93.08 23.22 92.74 22.68Q92.02 21.51 92.02 19.33L92.03 18.24Q92.14 15.42 93.49 14.57Q94.06 14.21 94.87 14.21Q95.57 14.21 96.11 14.51Q96.62 14.79 96.98 15.36ZM69.96 18.65L67.62 18.65L67.62 14.37L70 14.37Q70.7 14.38 71.18 14.7Q71.37 14.83 71.53 15Q71.59 15.07 71.64 15.15Q72.09 15.74 72.09 16.66Q72.09 17.46 71.7 17.96Q71.63 18.05 71.54 18.13L71.54 18.13Q71 18.65 69.96 18.65ZM109.3 18.44L107.04 18.44L107.04 14.37L109.3 14.37Q110.23 14.37 110.74 14.83Q110.79 14.87 110.83 14.92Q110.88 14.97 110.93 15.03Q111.35 15.56 111.35 16.42Q111.35 17.29 110.92 17.81Q110.88 17.86 110.83 17.91Q110.81 17.94 110.78 17.96Q110.27 18.44 109.3 18.44ZM85.5 40.17Q86.3 38.5 86.3 36.33L86.3 35.65Q86.29 33.51 85.47 31.86Q84.89 30.68 83.97 29.89Q83.6 29.57 83.18 29.31Q82.87 29.12 82.55 28.97Q81.31 28.41 79.82 28.41Q78.31 28.41 77.06 28.98Q76.74 29.13 76.43 29.32Q75.94 29.61 75.52 29.99Q74.67 30.77 74.14 31.89Q73.34 33.55 73.34 35.73L73.34 36.56Q73.38 38.66 74.2 40.28Q74.77 41.41 75.65 42.17Q76.04 42.5 76.48 42.77Q76.69 42.89 76.9 42.99Q78.21 43.64 79.84 43.64Q81.35 43.64 82.59 43.07Q82.91 42.92 83.21 42.74Q83.65 42.47 84.03 42.14Q84.93 41.34 85.5 40.17ZM122.68 38.64Q122.91 39 122.91 39.49Q122.91 39.91 122.72 40.21Q122.6 40.41 122.39 40.57Q121.88 40.95 120.99 40.95Q119.61 40.95 118.99 40.39Q118.97 40.37 118.95 40.35Q118.38 39.78 118.38 38.63L114.8 38.63Q114.8 39.74 115.22 40.65Q115.35 40.95 115.53 41.22Q115.54 41.23 115.54 41.23Q116.28 42.35 117.73 42.99Q119.19 43.64 120.99 43.64Q123.55 43.64 125.01 42.53Q125.64 42.05 126 41.42Q126.48 40.58 126.48 39.47Q126.48 38.57 126.15 37.81Q125.59 36.53 124.08 35.66Q123.09 35.09 121.55 34.59Q120.02 34.1 119.41 33.64Q118.89 33.25 118.81 32.78Q118.79 32.7 118.79 32.61Q118.79 32.34 118.89 32.1Q119.02 31.78 119.35 31.53Q119.9 31.11 120.86 31.11Q121.73 31.11 122.27 31.53Q122.32 31.57 122.36 31.61Q122.48 31.72 122.58 31.85Q122.92 32.31 122.92 33.01L126.48 33.01Q126.48 32.07 126.14 31.27Q125.99 30.92 125.78 30.61Q125.63 30.39 125.47 30.2Q124.82 29.44 123.81 28.98Q122.54 28.41 120.94 28.41Q119.3 28.41 117.99 28.94Q116.68 29.46 115.96 30.4Q115.67 30.78 115.5 31.21Q115.24 31.84 115.24 32.57Q115.24 33.26 115.47 33.87Q116.04 35.44 118.12 36.46Q119.01 36.9 120.4 37.37Q121.8 37.84 122.35 38.27Q122.55 38.43 122.68 38.64ZM38.78 43.43L42.34 43.43L42.34 28.62L38.78 28.62L38.78 43.43ZM53.92 43.43L57.47 43.43L57.47 28.62L53.91 28.62L53.91 37.84L48.67 28.62L45.1 28.62L45.1 43.43L48.67 43.43L48.67 34.21L53.92 43.43ZM60.01 28.62L60.01 43.43L64.88 43.43Q66.28 43.43 67.49 42.94Q67.94 42.76 68.37 42.51Q69.09 42.09 69.67 41.52Q70.33 40.85 70.79 39.99Q70.84 39.89 70.89 39.78Q71.65 38.25 71.65 36.34L71.65 35.66Q71.64 33.93 70.99 32.49Q70.88 32.25 70.76 32.02Q70.25 31.08 69.51 30.38Q68.97 29.88 68.31 29.51Q68.03 29.35 67.73 29.21Q66.39 28.62 64.78 28.62L60.01 28.62ZM97.24 43.43L100.79 43.43L100.79 28.62L97.23 28.62L97.23 37.84L91.99 28.62L88.42 28.62L88.42 43.43L91.99 43.43L91.99 34.21L97.24 43.43ZM106.9 37.15L112.52 37.15L112.52 34.5L106.9 34.5L106.9 31.37L113.55 31.37L113.55 28.62L103.33 28.62L103.33 43.43L113.53 43.43L113.53 40.69L106.9 40.69L106.9 37.15ZM128.83 43.43L132.39 43.43L132.39 28.62L128.83 28.62L128.83 43.43ZM138.85 40.66L143.75 40.66L144.61 43.43L148.45 43.43L142.97 28.62L139.61 28.62L134.18 43.43L138 43.43L138.85 40.66ZM81.93 32.36Q82.67 33.5 82.67 35.71L82.67 36.39Q82.66 38.55 81.93 39.7Q81.55 40.28 81.02 40.57Q80.51 40.85 79.84 40.85Q79.08 40.85 78.51 40.51Q78.03 40.22 77.69 39.68Q76.97 38.51 76.97 36.33L76.98 35.24Q77.09 32.42 78.43 31.57Q79.01 31.21 79.82 31.21Q80.52 31.21 81.05 31.51Q81.57 31.79 81.93 32.36ZM63.58 40.69L63.58 31.37L64.78 31.37Q65.85 31.37 66.57 31.87Q66.92 32.11 67.18 32.46Q68.01 33.55 68.01 35.7L68.01 36.34Q68.01 38.5 67.18 39.59Q66.89 39.98 66.5 40.23Q65.81 40.69 64.82 40.69L63.58 40.69ZM142.89 37.91L139.71 37.91L141.29 32.77L142.89 37.91Z" fill="url(#paint_linear_28_4360_0)" fill-opacity="1.000000" fill-rule="evenodd"/>
</svg>
