<svg width="19.710938" height="137.388367" viewBox="0 0 19.7109 137.388" fill="none" xmlns="http://www.w3.org/2000/svg" xmlns:xlink="http://www.w3.org/1999/xlink">
	<desc>
			Created with Pixso.
	</desc>
	<defs>
		<filter id="filter_6_332_dd" x="0.000000" y="0.000000" width="19.710938" height="137.388367" filterUnits="userSpaceOnUse" color-interpolation-filters="sRGB">
			<feFlood flood-opacity="0" result="BackgroundImageFix"/>
			<feColorMatrix in="SourceAlpha" type="matrix" values="0 0 0 0 0 0 0 0 0 0 0 0 0 0 0 0 0 0 127 0" result="hardAlpha"/>
			<feOffset dx="0" dy="0"/>
			<feGaussianBlur stdDeviation="1.33333"/>
			<feComposite in2="hardAlpha" operator="out" k2="-1" k3="1"/>
			<feColorMatrix type="matrix" values="0 0 0 0 0 0 0 0 0 0 0 0 0 0 0 0 0 0 0.1 0"/>
			<feBlend mode="normal" in2="BackgroundImageFix" result="effect_dropShadow_1"/>
			<feBlend mode="normal" in="SourceGraphic" in2="effect_dropShadow_1" result="shape"/>
		</filter>
	</defs>
	<g filter="url(#filter_6_332_dd)">
		<path id="Fb In Tw" d="M15.37 121.48Q15.71 120.81 15.71 119.92Q15.71 119.03 15.37 118.3Q15.28 118.1 15.17 117.92Q14.97 117.58 14.71 117.31Q14.28 116.84 13.7 116.52Q13.65 116.5 13.6 116.47Q12.7 116.01 11.56 116.01Q10.43 116.01 9.53 116.46Q9.48 116.49 9.42 116.52Q8.82 116.85 8.38 117.32Q8.13 117.59 7.93 117.92Q7.8 118.13 7.7 118.35Q7.39 119.06 7.39 119.92Q7.39 120.92 7.79 121.56Q8.19 122.19 8.71 122.57L4 122.57L4 124.62L15.51 124.62L15.51 122.79L14.42 122.57Q14.68 122.39 14.89 122.17Q15.18 121.87 15.37 121.48ZM4.32 133.38L15.51 133.38L15.51 131.34L10.71 131.34L10.71 127.15L9.1 127.15L9.1 131.34L5.96 131.34L5.96 126.15L4.32 126.15L4.32 133.38ZM4.32 72.25L15.51 72.25L15.51 70.2L4.32 70.2L4.32 72.25ZM5.96 21.42L15.51 21.42L15.51 19.37L5.96 19.37L5.96 16.09L4.32 16.09L4.32 24.68L5.96 24.68L5.96 21.42ZM7.58 68.07L15.51 68.07L15.51 66.02L11.42 66.02Q10.36 66.02 9.75 65.5Q9.74 65.49 9.73 65.47Q9.47 65.24 9.32 64.95Q9.12 64.56 9.12 64.06Q9.12 63.35 9.47 62.94Q9.55 62.84 9.66 62.76Q10.2 62.34 11.23 62.34L15.51 62.34L15.51 60.3L11.03 60.3Q9.24 60.3 8.32 61.11Q8.08 61.32 7.9 61.57Q7.39 62.3 7.39 63.4Q7.39 64.32 7.78 65.01Q7.79 65.03 7.8 65.04Q8.04 65.44 8.37 65.73Q8.62 65.95 8.92 66.11L7.58 66.27L7.58 68.07ZM7.58 16.3L15.51 13.98L15.51 11.85L9.58 10.16L15.51 8.46L15.51 6.33L7.58 4L7.58 6.03L13.29 7.42L7.58 9.02L7.58 11.29L13.29 12.89L7.58 14.26L7.58 16.3ZM13.67 119.28Q13.91 119.75 13.91 120.35Q13.91 120.97 13.65 121.45Q13.5 121.73 13.25 121.97Q13.06 122.15 12.85 122.27Q12.29 122.6 11.55 122.6Q10.8 122.6 10.24 122.27Q10.03 122.15 9.84 121.97Q9.59 121.73 9.44 121.45Q9.18 120.97 9.18 120.35Q9.18 119.77 9.41 119.32Q9.57 119 9.85 118.73Q10.05 118.54 10.29 118.41Q10.83 118.09 11.56 118.09Q12.31 118.09 12.86 118.42Q13.08 118.55 13.26 118.73Q13.51 118.98 13.67 119.28Z" fill="#FFFFFF" fill-opacity="1.000000" fill-rule="evenodd"/>
	</g>
</svg>
